<svg xmlns="http://www.w3.org/2000/svg" width="1365.333" height="1365.333" version="1.0" viewBox="0 0 1024 1024"><path d="M490 56.6c-47 6.2-96 32.8-122.8 66.7-9.8 12.4-9.9 12.8-7.7 17.7l1.8 4-5.1 7.7c-6.8 10.5-14 25.9-15.4 33-.6 3.2-1.2 6.3-1.4 7-.3 1.3-5.5 3.7-17.9 8.5-4.4 1.7-9.1 4.2-10.5 5.5l-2.5 2.3-.3 42.8c-.2 23.5 0 44.6.3 46.9.9 6 4 9.2 14.2 14.6 11.2 6 17.6 11.3 17.6 14.8 0 3.3-5 11-14.9 22.9-9.3 11.2-13 16.9-17.8 27-5.6 11.9-6.9 18.6-6.2 31.5.4 6 .7 11.7.7 12.5.1.8-2.2 8-5.1 16-2.8 8-6 18.1-7 22.5-.9 4.4-2.9 11-4.3 14.6-1.4 3.7-4.1 12.9-6.1 20.5-1.9 7.7-4.4 16.5-5.5 19.6-3.3 9.5-7 24-7.7 29.9l-.6 5.7-43.2.7c-23.7.4-56.9.5-73.9.4-28.1-.4-30.7-.3-30.7 1.3 0 1.3 6 13.5 14.3 29.2 1.4 2.6 1.5 10.3 1.1 66-.2 34.7-.6 98.1-.8 141l-.5 77.8 2.2-.5c1.2-.3 6.2-2.2 11.1-4.2 12.3-5.2 65.7-23 92.1-30.8 12.1-3.6 29.6-8.8 38.8-11.6 9.3-2.8 17.3-4.8 17.8-4.5.7.4.9 10.3.7 26.8l-.3 26.2 3.7 7.5c4.2 8.5 11.5 16.7 17.8 19.9 4.9 2.5 2.8 2.9 37.5-6.3 26.2-6.9 72.5-16.7 79.1-16.7.6 0 4.4 3.7 8.4 8.2 4 4.6 12.3 13.5 18.4 19.8 6.1 6.4 17.8 18.8 26.1 27.5 8.2 8.8 17.6 18.7 20.7 22l5.8 6 12.7-13.5c7-7.4 22-23 33.3-34.5 11.3-11.6 23.7-24.3 27.5-28.4l7-7.4 11.5 1.7c51.2 7.7 86 16 119.1 28.3 4.1 1.5 4.9 1.5 6.4.3 1.5-1.3 1.7-2.8 1.2-12-.5-9.6-1.3-14.4-6.6-37.5l-1.8-8 3.5-6.6c2.6-5.1 3.7-8.8 4.5-15.3.6-4.7 1.4-8.6 1.7-8.6 1.5 0 68.1 21 93.5 29.5 15.4 5.1 28.9 9.5 30 9.7 3.5.6 4.3-8.9 4.4-51.2 0-21.2.5-41.9 1-46 .6-4.1 1.1-7.8 1.1-8.2 0-.4 2.6-1.4 5.7-2.3 8.6-2.5 12.4-4.8 18.6-11.1 6.1-6.2 10.4-13.5 13.6-23.1 2-6 2.1-8.2 2.1-57.5-.1-50.4-.1-51.4-2.3-57.8-5.7-16.8-17.6-31.2-30.8-37.5-15.6-7.4-18.6-7.7-64.7-8.3-41.2-.4-41.2-.4-41.6-2.6-1.7-8.3-4.3-18.8-7.2-28.6-1.8-6.3-5.6-20.3-8.4-31-6.1-23-16.8-56.6-20-63-2.1-4.1-2.2-5-1.1-10.1 2.8-13.7.6-27.5-6.8-43.2-5-10.6-11.7-19.4-19.7-26-4.7-3.8-7.3-7-9.9-11.8-1.9-3.7-3.5-7.4-3.5-8.2 0-2.2 7.3-7.9 17.1-13.2 4.6-2.6 9.5-5.8 10.9-7.1l2.5-2.4v-94l-3-3c-1.7-1.6-8.4-5.4-15-8.4l-12-5.4-.8-5.2c-1.4-9.6-8.1-22.5-21.1-40.5-.7-.9-.4-2.5.8-4.7 1.8-3.3 1.8-3.5-.4-7.9-8.2-16.2-23.2-31.5-45.3-46.2-11.5-7.7-29.7-17.3-42.2-22.2-25.6-10-58.4-13.7-87.5-9.9zm51.9 16c32.4 6 61.5 20.5 88.9 44.2l6.2 5.5-10 9.8c-5.5 5.5-10.4 9.9-10.8 9.9-.4 0-3.8-2.5-7.7-5.6-10.7-8.6-19-13.7-30.5-18.7-11.4-4.9-15.7-6.2-35.5-10.3-18.6-3.9-37.6-3.9-56 0-16.6 3.5-21.4 4.9-35.5 10.3-13.6 5.2-19.2 8.2-32.3 17.5l-9.8 6.9-2.7-2.3c-1.5-1.3-5.8-5.6-9.6-9.6l-7-7.2 4-4.1c4.6-4.8 18.8-15.6 29.4-22.3 22-14 50.3-23.5 77-26 8.5-.8 33.2.4 41.9 2zM381.5 138c1.8 1.9 1.8 2.2.2 3.7-1.6 1.6-1.8 1.6-3.8-.4-2.3-2.2-2-5.3.4-5.3.8 0 2.2.9 3.2 2zm153.2 2.1c25.4 3.4 54.5 18.5 72.3 37.5l5.5 5.9-6 .5c-6.9.6-11.4 3-14.1 7.4-1.8 2.9-1.9 6.7-2.4 70.4l-.5 67.2-77 .1-77 .2-.5-66.4c-.4-59.2-.7-66.7-2.1-69.4-3.5-6.2-8.1-8.7-16-8.6-3.2 0-6.1-.3-6.4-.8-.7-1.3 9.5-10.5 20-18.1 17.8-12.8 40.5-22.7 58.5-25.5 10.5-1.6 35.1-1.9 45.7-.4zm119 17.2c6.5 8.8 14.3 25.5 14.3 30.9 0 1.6-.6 1.9-3.1 1.6-2.8-.3-3.6-1.2-7.1-7.8-2.2-4.1-6-10.8-8.5-14.8l-4.5-7.3 2.4-3.4c1.2-1.9 2.5-3.5 2.8-3.5.3.1 1.9 2 3.7 4.3zm-277.9.7c1.2 1.6 2.2 3.2 2.2 3.5 0 .3-1.5 2.9-3.3 5.8-1.8 2.9-5.2 9.1-7.6 13.9-4.2 8.6-4.4 8.8-7.8 8.8-3.4 0-3.4-.1-2.8-3.2 1-4.2 7-19.1 9.2-22.6 3-4.7 6.5-9.2 7.2-9.2.4 0 1.7 1.3 2.9 3zm280.5 84.5c-.1 24.2-.5 45.1-.8 46.3l-.6 2.4-2-2.6c-2.7-3.4-6.4-4-25.9-4l-16.5-.1-.1-4.8c-.1-3.3.2-4.7 1.1-4.7.7 0 1.5.3 1.8.7.2.5.2.2.1-.5-.2-.7 1-2.5 2.6-4 2.6-2.4 3-3.4 3.2-9.2l.2-6.5-5-.5-4.9-.5-.8-23c-.8-25.4-.6-31.3 1.4-32.6.8-.5 11.5-.8 23.9-.6l22.5.2-.2 44zm-240.8-42.3c.9 3 1.2 19.6.6 36.3l-.6 18-5 .5-5 .5.3 5c.2 2.7 1 5.7 1.8 6.6.8.8 1.4 2.3 1.4 3.2 0 .9 1.2 2.2 2.8 2.9 2.4 1.2 2.7 1.9 3 7.1l.3 5.7h-19.6c-18.3 0-19.9.1-22.3 2-1.4 1.1-2.9 1.7-3.3 1.3-.4-.4-1.1-20.9-1.5-45.6l-.7-44.7h23.7c18.1 0 23.8.3 24.1 1.2zm268.7 10.4c5.1 2.5 10.7 5.4 12.5 6.5l3.3 2.1-.2 37.6-.3 37.7-13 7.7c-7.1 4.3-13.3 7.4-13.8 6.9s-.7-2.1-.5-3.7c.3-2.4.9-2.9 5.3-3.9 2.8-.6 7.9-2.7 11.5-4.6l6.5-3.4.3-7.8c.3-9.1-.3-9.7-7.4-7.3-2.6.9-5 1.3-5.5 1-.5-.3-.9-5.8-.9-12.2 0-32.1-1.7-48.8-4.7-45.9-.4.5-.8 7.6-.8 15.7 0 12.6-.3 15.2-1.7 16.6-1.5 1.6-1.7 1.5-2.2-1.7-.3-1.9-.7-8.6-1-14.9-.3-6.3-.9-15.9-1.2-21.3l-.7-9.7h2.6c1.5 0 6.9 2.1 11.9 4.6zm-329.6 3.6c-.3 4-.9 13.8-1.2 21.8-.4 9-1.1 14.8-1.8 15.2-1.7 1.1-2.4-2.6-2.5-12.7-.1-5-.4-10.7-.7-12.8-.7-3.9-2.7-4.9-3.9-2-.3 1-.9 14.1-1.2 29.1l-.6 27.3-4.1-.7c-8.2-1.5-8-1.6-9 6-.9 6.6-.9 7 1.5 8.9 3 2.5 15.6 8.4 18.9 8.9 2 .2 2.6.9 2.8 3.5.2 1.8.1 3.3-.3 3.3-.9 0-16.3-8.9-22.2-12.8l-5.3-3.5v-36.2c0-33.5.1-36.3 1.8-37.8 3.4-3.1 22.7-12.6 25.6-12.7h2.8l-.6 7.2zM652.9 324c3.5.6 8.4 2.2 11 3.5 4.8 2.4 11.8 8.2 10.9 9-.2.3-3.6-.4-7.4-1.6-5.1-1.5-11-2.2-22.4-2.6-15.4-.5-22.4.1-36 3.1-3.5.8-6.6 1.3-6.9 1-.8-.8 4.3-5.4 8.8-8 2.6-1.4 6.9-3.2 9.6-3.9 6-1.6 23.6-1.9 32.4-.5zM411 327.3c6.5 3.2 12.8 8.2 11.8 9.3-.4.4-4.5-.1-9-1.1-20.8-4.4-40.1-4.5-54.5-.2-4.6 1.4-8.3 2-8.3 1.5 0-2.6 12-10.5 18.5-12.1 1.1-.3 9.7-.5 19-.4 16.4.2 17.2.3 22.5 3zM395.5 343c4.4 1 10.8 3 14.3 4.5 6 2.4 6.4 2.5 9.4.9 3.5-1.8 21.5-4.1 24.1-3.1 1.2.4 1.7 1.8 1.7 4.6v4.1l-11-.7c-8.6-.5-11-.3-11 .7 0 .7 2.6 4 5.8 7.4 10.8 11.6 16.9 29.1 15.9 46.1-.3 4.9-1 11.3-1.7 14.2-1 4.7-1.4 5.2-4.5 5.7-5.4 1-12.6 4.5-17.5 8.5-8.2 6.5-11.3 11.8-13.2 22l-1.2 6.4-6.5 3.1c-6.2 2.9-7.3 3.1-18.1 3.1-9.7 0-12.5-.4-18-2.4-27.9-10.5-46-36-46-64.8 0-27.4 22.1-53.5 51.1-60.2 10.9-2.5 16.6-2.5 26.4-.1zm262.6.1c13.8 3.4 22.1 8.1 32 17.9 7 6.9 9.4 10.2 12.7 17 5.4 11.2 6.6 17 5.9 29.9-.8 17.2-6.7 30.8-18.9 43.8-13.3 14-36.6 22.5-53.5 19.4-5-1-14.6-4.3-16.2-5.7-.1-.1-1-4-1.7-8.5-.8-4.6-2.4-9.7-3.4-11.5-4.8-7.7-17.7-16.4-26.7-17.9-4.1-.6-4.2-.7-5.5-6.3-2.1-9.1-1.6-29.4.9-37 2.7-8 8.8-18.3 14.7-24.6 2.5-2.8 4.6-5.3 4.6-5.8 0-1-1.6-1.1-12.7-.8l-9.3.2V345h10c7.4 0 11.2.5 14.7 1.9 4.5 1.7 5.2 1.8 8.3.4 14.1-6.2 30-7.7 44.1-4.2zm-91.5 3.4c.3 1.4.3 5-.1 8.1-.3 3-.1 11.3.5 18.4 1.1 11 1 14.7-.4 25.2-.9 6.8-1.7 13.4-1.8 14.8-.3 2.1-.9 2.6-4.5 3.1-5 .6-7.8-.6-5-2.2 1.1-.6 1.7-2.2 1.7-4.3 0-6.4.7-6.3-43.8-6.9-45.3-.5-43.2-.9-43.2 6.9 0 3.2.4 4.4 1.5 4.4.8 0 1.5.7 1.5 1.5 0 1.1-1.2 1.4-5.7 1.2-5.4-.2-5.8-.4-6-2.7-.2-1.4-1-8.1-1.8-15-1.3-9.9-1.4-16.7-.8-33l.8-20.5 49-.5c27-.3 50.9-.6 53.2-.8 3.8-.2 4.3.1 4.9 2.3zm-100.9 85.7c4.1 1.5 7.4 3.8 11.4 7.7 12.2 12.3 16.1 30.6 9.6 45.2-3 6.6-4.1 7.7-14.2 14-12 7.5-17.5 9.3-27.5 9.3-7.8.1-9.2-.2-16.3-3.6-4.3-2.1-9.2-4.7-10.8-5.9-1.6-1.1-2.9-1.6-2.9-1 0 1.8-5.1-3.2-7.6-7.5-3.1-5.2-3-7.2.2-8.4 1.4-.6 2.7-1 2.9-1 .1 0 1.7 2.2 3.5 4.9 4 6.3 9.4 11.2 16.2 14.8 4.7 2.5 6.4 2.8 14.8 2.8 8.2 0 10.3-.4 15.2-2.7 7.9-3.7 14.2-9.8 18-17.5 2.8-5.7 3.2-7.5 3.2-14.7-.1-14.9-6.2-24.8-20.4-33-4.4-2.6-8-4.9-8-5.1 0-1.3 7.5-.3 12.7 1.7zm107.3-1.7c0 .2-3 2.2-6.7 4.4-6.7 3.9-13.4 10.1-16.6 15.2-3.1 5.1-5 13.9-4.5 21.4.8 12.3 8.9 23.9 20.6 29.3 4.9 2.3 7 2.7 15.2 2.7 8.4 0 10.1-.3 14.8-2.8 6.7-3.5 13.6-9.8 16.9-15.4 2.8-4.9 3.2-5 6.3-2.5l2.3 1.8-2 4.5c-2.8 6.2-7 10.9-9.6 10.7-1.2-.1-5.6 1.5-9.7 3.5-16.9 8.2-26.6 7.3-46.1-4-9.4-5.4-12-8.2-14.9-16-7.6-20.4 4.7-46.2 25-52.4 2.8-.8 9-1.1 9-.4zm-64.6 4.1c3.4 3.3.8 10.4-3.7 10.4-2.6 0-6.7-3.8-6.7-6.2 0-4.6 7.1-7.5 10.4-4.2zm18.6.4c1.1 1.1 2 2.9 2 4 0 2.4-3.7 6-6.2 6-2.4 0-5.8-3.5-5.8-6 0-1.1.9-2.9 2-4s2.9-2 4-2 2.9.9 4 2zm-211.9 9.2c1.2 2.4 4.1 7.1 6.5 10.5 2.4 3.4 4.4 6.5 4.4 6.8 0 .4-1.3.4-2.9 0-2.7-.6-2.9-.4-3.3 2.9-.3 2.5 0 3.6.9 3.6.7 0 1.3.7 1.3 1.5 0 1.8-.3 1.7 3.8.6 3.5-1.1 3.9-.7 1.7 1.5-.8.9-1.5 3.4-1.5 5.7-.1 6.7-5 23-6.4 20.9-.4-.7-1.2-1-1.7-.7-.5.4-.9-.4-.9-1.7-.1-2-.2-2.1-1.1-.6-1.5 2.6-3.3 2.2-2.5-.5.3-1.2.9-3.3 1.2-4.7.6-2.4.6-2.4-.8-.5-3.4 4.8-8.8 27.9-7 29.7.9.9 1.2.8 1.2-.6 0-1.6.1-1.6 1.6-.2 1.2 1.3 1.3 2.3.5 5.3-1.3 4.7-1.3 5.3-.1 5.3.5 0 1.2-1.6 1.6-3.5.3-1.9 1.1-3.8 1.6-4.1 1.2-.7.4 3.8-1.8 10.4-.8 2.3-1.4 5.2-1.4 6.3 0 1.5-.5 1.9-1.5 1.5-1.1-.4-2 .6-3.1 3.4-.9 2.2-2 4-2.5 4-1.2 0-1.2-.1.6-4.4 1.7-4.1 3-16 1.5-13.6-.5.8-1 2.5-1 3.7 0 1.3-.5 2.3-1.2 2.3-.6 0-.8.3-.5.7.4.3-.3 1.3-1.4 2.1-1.5 1.1-2 2.2-1.7 4.3.3 1.6 0 2.9-.4 2.9-.5 0-.8.8-.6 1.7.5 2.4-4.1 4.3-10.1 4.3-2.6 0-5-.2-5.3-.5-.5-.5 2.6-14.8 6-27.5 2.7-9.9 9.8-35.8 12.3-44.3 1-3.7 2.8-9.7 3.8-13.5 1-3.7 3.1-10.6 4.5-15.5 1.4-4.8 2.6-8.9 2.6-9.2 0-1.5 1.2 0 3.1 3.7zm138.6-.5c3.7 1.7 9.9 8.2 11.3 11.9.6 1.4 1 4.5 1 7v4.5l-2.7-2.6c-3.3-3-4.9-3.2-6.3-.5-3.7 7-19.6 6.8-24.3-.3-1.4-2.1-1.3-2.4.1-3.5 1-.6 1.2-1.1.6-1.1-1.5-.1-8 6-8.8 8.4-.7 1.9-.8 1.9-1.8.1-1.5-2.7-.3-11 2.3-15.6 5.3-9.3 18.2-13.1 28.6-8.3zm262.6-.5c.2 1.3 1.7 6.3 3.2 11.3 5.4 17.9 22.9 84.7 23.9 91.7l.7 4.8h-5.6c-5.1 0-8.9-1.6-8.4-3.5.1-.3-.2-2.1-.5-3.9-.5-2.8-1-3.3-2.6-2.9-1.1.3-2 1.3-2 2.3 0 1.1-1.3 2.5-3 3.4-2.3 1.1-3 1.2-3 .2 0-.8-.9-4.2-2-7.6-2.2-7-2.7-12.5-.9-11.4.9.5 1-.3.5-2.9-.8-4.1.9-6 2.3-2.5 1 2.3 1 2.2 1-.5.1-1.5.6-2.7 1.1-2.7 1.4 0 .3-6.3-1.6-10.4-.8-1.7-1.7-4.7-2-6.8-.4-2.1-1.1-3.5-1.5-3.2-.5.3-.7 1-.3 1.5.3.5.7 3.3.9 6.2l.4 5.2-1.1-5.2c-.6-2.9-1.7-5.4-2.5-5.8-1.2-.4-1.3-.1-.8 1.2.5 1 .9 3.1 1.1 4.8.1 1.6.5 4.2.9 5.7.4 1.7.3 2.8-.3 2.8-.5 0-1.3-2-1.7-4.5-.5-4-.9-4.5-2.6-4-1.1.4-1.9.2-1.9-.4 0-.6.7-1.1 1.5-1.1 1.7 0 2-1.6.5-2.5-.5-.3-1-.1-1 .4 0 2.5-1.8.8-2.9-2.7-2.7-8.1-6.1-21.5-6.1-23.7 0-1.4.9-2.9 2-3.5 2.1-1.1 2.8-4 1-4-.5 0-1 .4-1 1 0 .5-.7.7-1.5.4-2.4-1-1.8-3.2.8-2.7 1.2.2 3.1-.3 4.2-1.1 1.8-1.4 1.8-1.5.3-1.6-2.2 0-2.4-1.8-.3-2.6.8-.4 1.2-1.1.9-1.6-.4-.6-.9-.6-1.4.2-.5.8-1.3.9-2.3.4-1.3-.8-.7-2.2 3.8-8.8 3-4.4 5.7-8.7 6.1-9.8.8-2.5 3.1-2.3 3.7.4zm-124.2 1.1c5 2.6 9.3 8.9 10.4 15 .8 5.1-1.2 5.7-6.9 1.7-3.6-2.4-4.6-2.7-4.6-1.5 0 .9.5 1.3 1.1.9.7-.4.9.1.7 1.2-.2 1.1-1 1.8-1.6 1.6-.7-.1-1.2.4-1.2 1.2 0 .8-2 2.2-4.5 3.1-5.7 2.2-10.8 1.3-14.7-2.6-3.7-3.6-4.8-3.6-7.3.1-2.9 4.4-4.5 3.8-4.5-1.6 0-5.1 3-12.1 6.4-15.3 7.1-6.5 18.5-8.1 26.7-3.8zm109.5 20.4c-1 1-1.9-.5-1-1.8.6-1.1.8-1.1 1.2 0 .2.7.1 1.5-.2 1.8zm-199.3 61.8-.2 24h-48.6c-26.8 0-48.8-.1-49-.3-.3-.3 10-23 10.8-23.9.3-.2 3.2 1 6.6 2.6 16.1 8.2 33.4 8 50.5-.6 8.8-4.4 16.6-11.8 21.2-20 3.1-5.7 3.9-6.4 6.2-6.1l2.7.3-.2 24zm30.3-18.3c3.9 7.7 12.9 16.2 21.6 20.3 7.6 3.6 18.5 6.5 25.1 6.5 5.9 0 18.6-2.9 24.6-5.6 2.9-1.3 5.7-2.4 6.1-2.4.7 0 11.4 22 10.8 22.5-.6.5-96.6 1-97.1.5-.3-.3-.8-11-1.2-23.8l-.7-23.2h4.1c3.9 0 4.2.2 6.7 5.2zm-139.1 23.1c-7.6 16.1-11.4 22.7-11.5 19.7 0-2.4 18.2-38.7 18.7-37.2.3.7-3 8.5-7.2 17.5zm239.4-4.6c9 18 11.2 23.1 10.1 23.8-.8.5-13.9-25.2-16.6-32.8-2.7-7.5.3-3.4 6.5 9zm84.1-9.5c0 1.8-.2 2-.9.8-.6-.8-.7-1.8-.5-2.2.9-1.4 1.4-.9 1.4 1.4zm-415.4 24.5c-1 1-1.9-.5-1-1.8.6-1.1.8-1.1 1.2 0 .2.7.1 1.5-.2 1.8zm6.4 3.3c0 .5-.2 1-.4 1-.3 0-.8-.5-1.1-1-.3-.6-.1-1 .4-1 .6 0 1.1.4 1.1 1zm65.1 24.8c.3.4 1.4 6.8 2.3 14.2 3.9 32.8 9.8 71.1 14.4 95 1.2 6.1 2 3.1 5.7-20.5 5.7-36.1 7.2-44.6 11.5-67 1.2-6.1 2.4-13.7 2.7-17l.5-6 19.4.3c19.4.3 21.4.7 18.5 3.8-1.2 1.2-4.6 14.1-6 22.4-.6 3.6-1.6 8.3-2.1 10.5-.5 2.2-2.1 10.3-3.5 18-1.5 7.7-3.3 17.3-4.2 21.3-.8 4-2.1 11.5-2.8 16.5-1.6 10.9-3.9 23.2-9.5 49.7-4.3 20.7-6.8 33.1-7.7 39.3-.7 4.3 0 4.1-15.3 5.6-5.8.6-14 1.6-18.3 2.2-4.3.6-8.1.9-8.4.6-.2-.3-2.9-12.2-5.9-26.4-6.5-31.3-8.1-38.9-9.9-47.3-.8-3.6-2.1-12.8-3-20.5-.8-7.7-2.4-19-3.5-25-2.2-11.9-5-27.8-7.4-41.9-2.1-12-4.1-17.6-8.2-23-1.9-2.5-3.4-4.8-3.4-5.3 0-1 43.2-.4 44.1.5zm345.2.2c.5.4.4 1.7-.2 2.8-1.3 2.4-1.5 59.1-.4 116.2.6 35.5.7 36.5 2.8 38.6 2.6 2.6 18.4 7.9 19.7 6.6 1.2-1.2 1.8-155.2.5-157.7-.5-1.1-2.1-3.2-3.5-4.7s-2.4-2.9-2.1-3c.2-.2 9.8-.1 21.3.2l20.8.5-.1 89.7c0 59.1-.4 91.2-1.1 94.3-1.6 7.3-5.4 12.9-11.7 17.2-5.1 3.5-6.1 3.8-12.2 3.8-3.6 0-9.1-.7-12.1-1.6-3-.9-9.8-2.9-15-4.4-17.6-4.9-25.1-9.9-34.5-22.6-2.4-3.2-5.2-8.6-6.4-12.1-2.1-6.1-2.1-7.7-2.1-78.8 0-80.4.6-73-6.7-81.3-1.8-2-3.3-4-3.3-4.5 0-1 45.3-.3 46.3.8zm-526.6 0c.1 0-.8 1.6-2.1 3.5-2 2.9-2.5 5.2-3.1 15.6-1 16.1.5 172.9 1.6 172.9 2 0 34.6-11.3 38.9-13.5 2.5-1.3 6-3.8 7.8-5.6 1.7-1.8 3.3-3.1 3.4-2.8.2.2.2 10.8 0 23.4l-.3 23.1-8.7 2.3c-23.7 6.4-50 14.9-69 22.4-5.6 2.2-10.5 3.7-10.8 3.4-.3-.3 0-2.3.8-4.4 1.1-3.1 1.3-24.5 1.3-116.8V580.4l-3.7-5.2c-2.1-2.9-3.8-5.3-3.8-5.5 0-.1 46.6.1 47.7.3zm133.3 7.6c0 4.4.3 13 .7 18.9l.6 10.9-2.8-2.2c-3.1-2.5-5.6-2.6-26.7-1.5l-12.8.6v44l11.2-.8c12.3-.8 15.5-1.6 17.5-4.5.8-1.1 1.8-2 2.4-2 .5 0 .9 8.2.9 20.2v20.3l-14 .1c-9.6.1-14.4.5-15.5 1.4-1.3 1.1-1.5 5.2-1.5 26.6V735h2.5c2.6 0 4.4-.4 21.3-4.5 11.5-2.8 14.6-4.1 19.7-8.6l3.5-3.1v11.4c0 6.3-.3 16.3-.7 22.2-.6 10.4-.7 10.8-3.2 11.8-1.4.5-11.1 2.8-21.6 5-27.9 5.9-30.3 6.4-38.5 8.6-9.1 2.5-21.5 5.9-24.1 6.7-2.8.9-2.4-.9 1.8-7.8l3.8-6.2.3-92.1c.4-103.1 1.1-93.6-7.2-103.2-2.5-3-4.6-5.4-4.6-5.5 0-.1 19.6-.2 43.5-.2H325v8.1zm209.8 9.4c.3 16.7-.1 21.6-1.6 19.4-.4-.5-2.1-2-3.9-3.2-2.9-2.1-4.2-2.2-20.2-2.2H492v36h12.8c11.4 0 13.1-.2 15-2 1.2-1.1 2.6-2 3.1-2 1.2 0 2 36.9.8 37.7-.4.2-2-.5-3.7-1.7-2.6-1.9-4.1-2-15.2-1.8l-12.3.3-.3 22.2-.2 22.3h15c17.4 0 22.7-1 26.6-5.1 1.5-1.6 3-2.9 3.3-2.9.3 0 .6 9.6.6 21.3v21.2l-38 .6c-20.9.4-39.9 1-42.2 1.4-5 .8-5.1.6-2.3-6.5 1.9-4.9 2-7.4 2-84.3v-79.3l-3-3.4c-1.6-1.9-2.9-4-3-4.5 0-.7 14.5-1 41.7-.9l41.8.1.3 17.3zm52.2-17.2c0 .4-.8 1.9-1.7 3.2-2.5 3.5-2.7 13-1.8 81.6l.7 58.2 3.2.6c5.4 1.1 24.1 1.9 27.8 1.2 2-.4 5.2-1.8 7.2-3.1 2-1.4 3.8-2.5 3.9-2.5.1 0 .2 5.3.2 11.7 0 6.5.2 16.5.4 22.3l.5 10.5-3-.2c-1.6 0-6.3-.6-10.4-1.2-20.3-2.9-34.1-4.2-50.3-4.8-19.4-.7-20.3-1-17-5.9 1.7-2.7 1.8-7.3 2.1-82.3l.3-79.4-3.1-4.9c-1.6-2.7-3-5.1-3-5.2 0-.1 9.9-.3 22-.4 12.1-.1 22 .2 22 .6zm257.2 1.3c15.6 2 24.3 6.5 31.6 16.4 9 12.3 8.6 9.5 9 64.7.2 31.1-.1 50.1-.7 52.5-2.8 10.2-12 19.8-21.4 22.4-4.3 1.2-5.3 1-24.5-2.9-5.1-1-9.5-1.5-9.8-1-.9 1.4.7 67.8 1.7 74.2.6 3.2.8 6 .6 6.3-.3.2-3.9-1.4-8.1-3.7-4.2-2.3-13.9-6.3-21.6-8.9l-14-4.7 2.5-3.4 2.5-3.4-.2-99.3-.3-99.2-5.2-5.3c-2.9-3-5.3-5.7-5.3-6.2 0-1 53 .2 63.2 1.5zM660.8 650h8.2v35.1l-7.7-.6c-4.3-.4-11.4-1.1-15.8-1.6s-12.1-.9-17.2-.9-9.3-.4-9.3-.8c0-.5.8-2.4 1.7-4.3 2.1-4.1 3-18.8 1.4-24.4l-1-3.8 15.7.6c8.6.4 19.4.7 24 .7zM496.6 768.5c1.1 2.2 6.1 11.5 10.9 20.7 4.9 9.3 9.3 16.8 9.9 16.8 1.1 0 3.6-4.4 14.1-24.5 3.1-6.1 6.6-12.5 7.7-14.3l2-3.3 9.7.3 9.6.3.1 42.3c.1 23.2-.2 42.5-.7 42.8-.5.2-4.2.2-8.4-.2l-7.5-.7-.1-22.1c0-12.1-.4-24.1-.8-26.6l-.7-4.5-4.5 6.9c-2.4 3.9-6.9 11.1-10 16-10.2 16.6-13.8 15-30.5-13.1-2.7-4.6-5.2-8.3-5.6-8.3-.5 0-.8 8.2-.8 18.2 0 10.1-.3 22-.7 26.5l-.6 8.3h-16.8l.6-21.3c.5-21.2-.6-57.3-2-61.4-.6-1.9-.3-2.2 3.2-2.6 2.1-.2 7.4-.4 11.8-.3l8 .1 2.1 4zM593 767c6.3.5 18.1 1.7 26.3 2.7l14.7 1.7v18.1l-19.1-2.3c-10.5-1.3-19.2-2.2-19.4-2-.4.4-.7 7.8-.6 12.8l.1 3.5 14.5 1.8c7.9 1 15.1 2 16 2.3 1.2.5 1.5 2.4 1.5 8.6v8l-3.2-.6c-9.7-1.7-27.2-3.7-28.4-3.2-1 .4-1.4 2.5-1.4 8 0 6 .3 7.5 1.7 8 .9.4 9.6 1.6 19.3 2.7 9.6 1 18.1 2.1 18.8 2.4 1.3.5 1.7 12 .5 16.4-.5 2.1-1 2.3-5.2 1.7-2.5-.4-13.1-1.8-23.6-3.1-10.4-1.4-21.2-2.8-23.9-3.2l-4.8-.8-.3-38.5c-.1-21.2-.6-40.2-1-42.3-.8-3.7-.8-3.7 2.6-3.7 1.9 0 8.6.5 14.9 1zm-158.2 1.2c1.3 1.7 12 30 19.2 51.3 3.2 9.3 7 20.1 8.5 23.9 1.4 3.8 2.4 7 2.3 7.2-.6.5-18.8 2.7-19.2 2.3-.2-.2-1.4-3.8-2.7-7.9l-2.4-7.5-3.5.2c-9.8.4-24.3 2.8-26.1 4.2-1.1.9-2.8 4.7-3.8 8.4s-2.1 7-2.3 7.3c-.8.7-17 2.4-17.9 1.9-.4-.3 1.7-7.8 4.8-16.8 3-8.9 7-21.4 8.8-27.7 1.8-6.3 4-13.8 4.8-16.5.9-2.8 3.2-10.3 5.2-16.7 4-13.2 3-12.2 15-13.7 3.9-.5 7.3-.9 7.6-1 .4 0 1.1.5 1.7 1.1zm228.7 6.7c24.9 3.7 32.6 6.4 40.2 14.3 5.4 5.6 8.3 12.2 9 20.8 1 11.9-2.9 21.2-10.9 26.2-2.1 1.3-3.8 2.8-3.8 3.4 0 1.2 4.2 11.5 8.3 20.4 4 8.6 6.8 16.2 6.3 16.8-1 .9-17.1-4.1-18.7-5.9-.9-1-4.4-8.4-7.9-16.6-3.4-8.1-6.5-15.2-6.9-15.6-.5-.4-3.7-1.5-7.1-2.3-5.1-1.2-6.5-1.2-7.2-.2-.4.7-.8 7-.8 14 0 9.1-.3 12.8-1.2 12.8-2.8 0-14.4-2.3-15.4-3.1-.7-.6-1.1-15.1-1.3-43.9l-.3-43h2.4c1.3 0 8.2.9 15.3 1.9zm-288.5 9v9l-5.7 1.1c-15.3 2.9-27 6.3-30.8 8.8-6.6 4.6-7.9 8-8.4 21.6-.2 7 .1 13.5.8 15.6 2.8 9.3 8.8 12.1 20.4 9.5 10.6-2.4 11.7-3.4 11.7-10.2v-5.6l-6 .6-6 .5v-16.6l4.7-1.1c4.4-1.2 23.1-5.1 23.9-5.1.7 0 .3 43.5-.5 45.4-.5 1.3-4.9 3.4-14.7 6.9-13.1 4.7-14.5 5-23.9 5.1-9.1.1-10.4-.1-14.6-2.6-4.7-2.8-8.3-6.8-11.4-12.8-2.3-4.4-3.4-30.6-1.6-38.9 1.7-7.8 5.6-15.4 11.2-21.5 8.1-8.9 13.3-11.2 36.2-16.1 16.1-3.4 14.7-4 14.7 6.4zm143.8 84c1.1.6 1.2 3.7.6 15.1-.6 12.1-.5 14.2.7 13.7.8-.3 5.5-2.4 10.4-4.6 9.9-4.4 14.5-5.8 14.5-4.4 0 1-14.1 18.9-24.9 31.6-5.9 6.9-7.7 8.5-8.7 7.5-3.1-3.4-24.6-30.3-27.3-34.2-5.7-8.3-4.2-8.3 13.7-.5 6.3 2.7 11.6 4.9 11.9 4.9.4 0 .3-6.5 0-14.4-.6-13.2-.6-14.5 1-14.9 3-.8 6.7-.7 8.1.2z"/><path d="M510.3 160.7c2.6.2 6.7.2 9 0s.2-.3-4.8-.3c-4.9 0-6.8.1-4.2.3zM367.4 358.6c-6.4 3.1-7.7 5.5-8.3 15.4l-.6 9.1-8 .3c-9.5.3-11.8 1.5-14.7 7.6-1.8 3.6-2.2 6.3-2.3 14 0 5.2.3 12.3.6 15.7.4 3.5.3 6.3-.2 6.3s-.9-1.4-.9-3.1c0-2-.4-2.9-1.2-2.6-4.2 1.5 4.9 19.4 14.1 27.9 14.2 13 28.3 15.6 46.5 8.5 8.9-3.4 9.9-5.3 9.8-18.1l-.1-10.6h7.2c9.6 0 15.2-2.7 18.4-8.9 1.9-3.7 2.3-5.9 2.3-14-.1-17.3-4.2-22.1-19.2-22.1H402v-9.6c0-9.2-.1-9.7-2.8-12.4-1.6-1.5-4.6-3.3-6.8-3.9-6-1.7-21.3-1.4-25 .5zm22.8 24.1.3 12.8 12 .3c8 .2 12.2.7 12.7 1.5.9 1.4 1.1 14.8.2 17.1-.5 1.3-2.6 1.6-12.4 1.6h-11.7l-.7 6.1c-.3 3.4-.6 9.3-.6 13v6.9h-9c-10.6 0-9.9 1-10.3-15l-.2-10.5-11.2-.5c-6.1-.3-11.5-.9-12-1.3-.4-.5-.8-4.8-.8-9.5v-8.7l12-.5 12-.5.3-11.5c.1-6.3.4-12.1.7-12.8.3-.8 3.1-1.2 9.4-1.2h9l.3 12.7zm-39.4 46.1c7.4.4 8.2.6 8.2 2.4 0 1.4-.5 1.8-1.5 1.5-.8-.4-1.7-.2-2 .3-.9 1.5-2.3 1.2-2.7-.6-.2-1-1.5-1.8-3.5-2-1.8-.2-4.7-.6-6.5-.8-1.8-.2-3.4-.9-3.6-1.6-.4-1 .1-1.1 1.4-.5 1.1.5 5.6 1 10.2 1.3zM639.5 355c-5 1.3-7.9 2.7-10.8 5.5-4.6 4.4-5.9 7.2-6.6 14.7l-.6 7.3-6.5.1c-3.6 0-8.1.6-10 1.2-15.4 5.1-18.4 30.2-5 41.3 4.5 3.8 10.1 5.3 17.3 4.6l5.7-.5-.6 4.8c-2.5 19 10.9 30.9 31.7 28.1 14-1.9 27.4-9.9 34.6-20.6 3.3-5 3.5-5.8 2.4-8.2-1-2.1-1.4-2.4-2.1-1.3-.6.9-2.6 1.3-6.4 1.2-3.1-.1-5.6.3-5.6.8 0 .6-.9 1-2.1 1-1.1 0-1.7-.4-1.4-1 .3-.5 0-.7-.9-.4-2 .8-3.6-.3-3-2 .4-.9 2.8-1.5 7.3-1.8 10.8-.6 16.7-5.8 19.8-17.4 1.7-6.8 1.1-12.9-1.9-19.2-3.4-7.2-10.3-11-20.8-11.5l-5.5-.2-.5-6c-.6-6.2-3.3-12.7-6.7-15.7-5.2-4.7-14.3-6.8-21.8-4.8zm14.7 14.9c4.5 5 3.3 13.5-2.4 17.5-2.8 2-9 2.1-12.6.2-5.1-2.6-7.2-10.1-4.5-15.6 2.4-4.6 5.6-6.2 11.7-5.7 4 .4 5.5 1 7.8 3.6zm-32 26.7c8.4 7.6 4.1 22.4-6.6 22.4-2.9 0-5.2-.7-7-2.1-2.8-2.2-5.6-7.8-5.6-11.1s3.1-8.8 5.9-10.4c3.4-1.9 10.5-1.2 13.3 1.2zm28.8 7.6c0 8-.4 8.4-6.8 7.8l-5.7-.5-.3-5.8-.3-5.7H651v4.2zm3.2 24.7c1.5 1.7 3 4.2 3.4 5.6 2.1 8.4-6.9 16-15.7 13.1-2.5-.8-4-2.3-5.7-5.6-2.1-4-2.3-4.9-1.2-8 2.4-6.7 6-9.2 12.5-8.5 2.9.3 4.8 1.2 6.7 3.4zM469.8 379.5c-.6 1.3-.5 3.4.4 6l1.3 4 8.5.7c11.9.9 73.3.9 74.6 0 2.9-1.9 4.7-10.3 2.4-11.7-.5-.3-20.1-.7-43.6-.8-41.9-.2-42.7-.2-43.6 1.8zM317 489.7c0 .7.5 2.4 1.1 4l1.2 2.8.9-3.4c.5-1.8.7-3.6.4-3.9-.3-.3-.6.3-.6 1.4-.1 1.9-.1 1.9-1.5 0-.8-1.1-1.5-1.5-1.5-.9zM306 522c0 .5.5 1 1 1 .6 0 1-.5 1-1 0-.6-.4-1-1-1-.5 0-1 .4-1 1zM307.6 534.2c-.3 1.7-.2 3.6.4 4.2.7.7 1-.4 1-3.2 0-5-.5-5.4-1.4-1zM827.7 607.6c-.4.4-.7 17.3-.7 37.6V682l2.4 1c1.3.5 6.6 1 11.7 1.2l9.4.3.6-5.5c.3-3 .3-18.5.1-34.4-.5-28.4-.5-29-2.7-31.2-3.1-3.1-19-7.5-20.8-5.8zM424.1 791.1c-1 2.4-6.5 20.3-8.3 27.2-.6 2.1-.8 4-.5 4.3.7.8 18.2-.7 19.7-1.6.9-.5-.2-4.8-4-16.1-2.9-8.5-5.4-15.6-5.6-15.8-.2-.2-.8.7-1.3 2zM665 805.4c0 14.1-1.1 12.4 9 14.6 5.1 1.1 14 1.3 16.5.4 2.3-.9 4.5-5.8 4.5-10.1 0-8.2-6.2-13.3-18.6-15.3-3.8-.6-7.9-1.4-9.1-1.7-2.3-.5-2.3-.5-2.3 12.1zM83.8 438.7c.7.3 1.6.2 1.9-.1.4-.3-.2-.6-1.3-.5-1.1 0-1.4.3-.6.6zM73.8 439.7c.7.3 1.6.2 1.9-.1.4-.3-.2-.6-1.3-.5-1.1 0-1.4.3-.6.6zM66.8 440.7c.6.2 1.8.2 2.5 0 .6-.3.1-.5-1.3-.5-1.4 0-1.9.2-1.2.5zM887.6 765.8c-.9 1.6-1.8 22.2-1.2 27.6 1.4 10.5 2.4 5.6 2.6-11.4.1-15.8-.1-18.2-1.4-16.2zM890.3 773c0 3 .2 4.3.4 2.7.2-1.5.2-3.9 0-5.5-.2-1.5-.4-.2-.4 2.8zM111.3 882c0 4.7.2 6.6.4 4.2.2-2.3.2-6.1 0-8.5-.2-2.3-.4-.4-.4 4.3zM280.4 905.5c0 8.8.2 12.3.3 7.7.2-4.6.2-11.8 0-16-.1-4.2-.3-.5-.3 8.3zM682.8 912.7c.7.3 1.6.2 1.9-.1.4-.3-.2-.6-1.3-.5-1.1 0-1.4.3-.6.6z"/></svg>